<svg xmlns="http://www.w3.org/2000/svg" version="1.1" xmlns:xlink="http://www.w3.org/1999/xlink" xmlns:svgjs="http://svgjs.dev/svgjs" width="1440" height="560" preserveAspectRatio="none" viewBox="0 0 1440 560">
    <g mask="url(&quot;#SvgjsMask1219&quot;)" fill="none">
        <path d="M52.32 361.93L99.08 388.93L99.08 442.93L52.32 469.93L5.55 442.93L5.55 388.93zM52.32 523.93L99.08 550.93L99.08 604.93L52.32 631.93L5.55 604.93L5.55 550.93zM239.38 361.93L286.15 388.93L286.15 442.93L239.38 469.93L192.62 442.93L192.62 388.93zM286.15 -43.07L332.92 -16.07L332.92 37.93L286.15 64.93L239.38 37.93L239.38 -16.07zM332.92 199.93L379.68 226.93L379.68 280.93L332.92 307.93L286.15 280.93L286.15 226.93zM426.45 199.93L473.22 226.93L473.22 280.93L426.45 307.93L379.68 280.93L379.68 226.93zM379.68 442.93L426.45 469.93L426.45 523.93L379.68 550.93L332.92 523.93L332.92 469.93zM519.98 199.93L566.75 226.93L566.75 280.93L519.98 307.93L473.22 280.93L473.22 226.93zM519.98 361.93L566.75 388.93L566.75 442.93L519.98 469.93L473.22 442.93L473.22 388.93zM660.28 118.93L707.05 145.93L707.05 199.93L660.28 226.93L613.52 199.93L613.52 145.93zM753.82 -43.07L800.58 -16.07L800.58 37.93L753.82 64.93L707.05 37.93L707.05 -16.07zM753.82 118.93L800.58 145.93L800.58 199.93L753.82 226.93L707.05 199.93L707.05 145.93zM800.58 523.93L847.35 550.93L847.35 604.93L800.58 631.93L753.82 604.93L753.82 550.93zM847.35 118.93L894.12 145.93L894.12 199.93L847.35 226.93L800.58 199.93L800.58 145.93zM940.88 280.93L987.65 307.93L987.65 361.93L940.88 388.93L894.12 361.93L894.12 307.93zM987.65 523.93L1034.42 550.93L1034.42 604.93L987.65 631.93L940.88 604.93L940.88 550.93zM1081.18 199.93L1127.95 226.93L1127.95 280.93L1081.18 307.93L1034.42 280.93L1034.42 226.93zM1081.18 361.93L1127.95 388.93L1127.95 442.93L1081.18 469.93L1034.42 442.93L1034.42 388.93zM1127.95 118.93L1174.72 145.93L1174.72 199.93L1127.95 226.93L1081.18 199.93L1081.18 145.93zM1127.95 280.93L1174.72 307.93L1174.72 361.93L1127.95 388.93L1081.18 361.93L1081.18 307.93zM1174.72 523.93L1221.48 550.93L1221.48 604.93L1174.72 631.93L1127.95 604.93L1127.95 550.93zM1361.78 37.93L1408.55 64.93L1408.55 118.93L1361.78 145.93L1315.02 118.93L1315.02 64.93zM1315.02 280.93L1361.78 307.93L1361.78 361.93L1315.02 388.93L1268.25 361.93L1268.25 307.93zM1361.78 361.93L1408.55 388.93L1408.55 442.93L1361.78 469.93L1315.02 442.93L1315.02 388.93zM1408.55 -43.07L1455.32 -16.07L1455.32 37.93L1408.55 64.93L1361.78 37.93L1361.78 -16.07zM1455.32 199.93L1502.08 226.93L1502.08 280.93L1455.32 307.93L1408.55 280.93L1408.55 226.93z" stroke="rgba(207, 220, 232, 1)" stroke-width="2"></path>
        <path d="M46.92 361.93 a5.4 5.4 0 1 0 10.8 0 a5.4 5.4 0 1 0 -10.8 0zM93.68 388.93 a5.4 5.4 0 1 0 10.8 0 a5.4 5.4 0 1 0 -10.8 0zM93.68 442.93 a5.4 5.4 0 1 0 10.8 0 a5.4 5.4 0 1 0 -10.8 0zM46.92 469.93 a5.4 5.4 0 1 0 10.8 0 a5.4 5.4 0 1 0 -10.8 0zM0.15 442.93 a5.4 5.4 0 1 0 10.8 0 a5.4 5.4 0 1 0 -10.8 0zM0.15 388.93 a5.4 5.4 0 1 0 10.8 0 a5.4 5.4 0 1 0 -10.8 0zM46.92 523.93 a5.4 5.4 0 1 0 10.8 0 a5.4 5.4 0 1 0 -10.8 0zM93.68 550.93 a5.4 5.4 0 1 0 10.8 0 a5.4 5.4 0 1 0 -10.8 0zM93.68 604.93 a5.4 5.4 0 1 0 10.8 0 a5.4 5.4 0 1 0 -10.8 0zM46.92 631.93 a5.4 5.4 0 1 0 10.8 0 a5.4 5.4 0 1 0 -10.8 0zM0.15 604.93 a5.4 5.4 0 1 0 10.8 0 a5.4 5.4 0 1 0 -10.8 0zM0.15 550.93 a5.4 5.4 0 1 0 10.8 0 a5.4 5.4 0 1 0 -10.8 0zM233.98 361.93 a5.4 5.4 0 1 0 10.8 0 a5.4 5.4 0 1 0 -10.8 0zM280.75 388.93 a5.4 5.4 0 1 0 10.8 0 a5.4 5.4 0 1 0 -10.8 0zM280.75 442.93 a5.4 5.4 0 1 0 10.8 0 a5.4 5.4 0 1 0 -10.8 0zM233.98 469.93 a5.4 5.4 0 1 0 10.8 0 a5.4 5.4 0 1 0 -10.8 0zM187.22 442.93 a5.4 5.4 0 1 0 10.8 0 a5.4 5.4 0 1 0 -10.8 0zM187.22 388.93 a5.4 5.4 0 1 0 10.8 0 a5.4 5.4 0 1 0 -10.8 0zM280.75 -43.07 a5.4 5.4 0 1 0 10.8 0 a5.4 5.4 0 1 0 -10.8 0zM327.52 -16.07 a5.4 5.4 0 1 0 10.8 0 a5.4 5.4 0 1 0 -10.8 0zM327.52 37.93 a5.4 5.4 0 1 0 10.8 0 a5.4 5.4 0 1 0 -10.8 0zM280.75 64.93 a5.4 5.4 0 1 0 10.8 0 a5.4 5.4 0 1 0 -10.8 0zM233.98 37.93 a5.4 5.4 0 1 0 10.8 0 a5.4 5.4 0 1 0 -10.8 0zM233.98 -16.07 a5.4 5.4 0 1 0 10.8 0 a5.4 5.4 0 1 0 -10.8 0zM327.52 199.93 a5.4 5.4 0 1 0 10.8 0 a5.4 5.4 0 1 0 -10.8 0zM374.28 226.93 a5.4 5.4 0 1 0 10.8 0 a5.4 5.4 0 1 0 -10.8 0zM374.28 280.93 a5.4 5.4 0 1 0 10.8 0 a5.4 5.4 0 1 0 -10.8 0zM327.52 307.93 a5.4 5.4 0 1 0 10.8 0 a5.4 5.4 0 1 0 -10.8 0zM280.75 280.93 a5.4 5.4 0 1 0 10.8 0 a5.4 5.4 0 1 0 -10.8 0zM280.75 226.93 a5.4 5.4 0 1 0 10.8 0 a5.4 5.4 0 1 0 -10.8 0zM421.05 199.93 a5.4 5.4 0 1 0 10.8 0 a5.4 5.4 0 1 0 -10.8 0zM467.82 226.93 a5.4 5.4 0 1 0 10.8 0 a5.4 5.4 0 1 0 -10.8 0zM467.82 280.93 a5.4 5.4 0 1 0 10.8 0 a5.4 5.4 0 1 0 -10.8 0zM421.05 307.93 a5.4 5.4 0 1 0 10.8 0 a5.4 5.4 0 1 0 -10.8 0zM374.28 442.93 a5.4 5.4 0 1 0 10.8 0 a5.4 5.4 0 1 0 -10.8 0zM421.05 469.93 a5.4 5.4 0 1 0 10.8 0 a5.4 5.4 0 1 0 -10.8 0zM421.05 523.93 a5.4 5.4 0 1 0 10.8 0 a5.4 5.4 0 1 0 -10.8 0zM374.28 550.93 a5.4 5.4 0 1 0 10.8 0 a5.4 5.4 0 1 0 -10.8 0zM327.52 523.93 a5.4 5.4 0 1 0 10.8 0 a5.4 5.4 0 1 0 -10.8 0zM327.52 469.93 a5.4 5.4 0 1 0 10.8 0 a5.4 5.4 0 1 0 -10.8 0zM514.58 199.93 a5.4 5.4 0 1 0 10.8 0 a5.4 5.4 0 1 0 -10.8 0zM561.35 226.93 a5.4 5.4 0 1 0 10.8 0 a5.4 5.4 0 1 0 -10.8 0zM561.35 280.93 a5.4 5.4 0 1 0 10.8 0 a5.4 5.4 0 1 0 -10.8 0zM514.58 307.93 a5.4 5.4 0 1 0 10.8 0 a5.4 5.4 0 1 0 -10.8 0zM514.58 361.93 a5.4 5.4 0 1 0 10.8 0 a5.4 5.4 0 1 0 -10.8 0zM561.35 388.93 a5.4 5.4 0 1 0 10.8 0 a5.4 5.4 0 1 0 -10.8 0zM561.35 442.93 a5.4 5.4 0 1 0 10.8 0 a5.4 5.4 0 1 0 -10.8 0zM514.58 469.93 a5.4 5.4 0 1 0 10.8 0 a5.4 5.4 0 1 0 -10.8 0zM467.82 442.93 a5.4 5.4 0 1 0 10.8 0 a5.4 5.4 0 1 0 -10.8 0zM467.82 388.93 a5.4 5.4 0 1 0 10.8 0 a5.4 5.4 0 1 0 -10.8 0zM654.88 118.93 a5.4 5.4 0 1 0 10.8 0 a5.4 5.4 0 1 0 -10.8 0zM701.65 145.93 a5.4 5.4 0 1 0 10.8 0 a5.4 5.4 0 1 0 -10.8 0zM701.65 199.93 a5.4 5.4 0 1 0 10.8 0 a5.4 5.4 0 1 0 -10.8 0zM654.88 226.93 a5.4 5.4 0 1 0 10.8 0 a5.4 5.4 0 1 0 -10.8 0zM608.12 199.93 a5.4 5.4 0 1 0 10.8 0 a5.4 5.4 0 1 0 -10.8 0zM608.12 145.93 a5.4 5.4 0 1 0 10.8 0 a5.4 5.4 0 1 0 -10.8 0zM748.42 -43.07 a5.4 5.4 0 1 0 10.8 0 a5.4 5.4 0 1 0 -10.8 0zM795.18 -16.07 a5.4 5.4 0 1 0 10.8 0 a5.4 5.4 0 1 0 -10.8 0zM795.18 37.93 a5.4 5.4 0 1 0 10.8 0 a5.4 5.4 0 1 0 -10.8 0zM748.42 64.93 a5.4 5.4 0 1 0 10.8 0 a5.4 5.4 0 1 0 -10.8 0zM701.65 37.93 a5.4 5.4 0 1 0 10.8 0 a5.4 5.4 0 1 0 -10.8 0zM701.65 -16.07 a5.4 5.4 0 1 0 10.8 0 a5.4 5.4 0 1 0 -10.8 0zM748.42 118.93 a5.4 5.4 0 1 0 10.8 0 a5.4 5.4 0 1 0 -10.8 0zM795.18 145.93 a5.4 5.4 0 1 0 10.8 0 a5.4 5.4 0 1 0 -10.8 0zM795.18 199.93 a5.4 5.4 0 1 0 10.8 0 a5.4 5.4 0 1 0 -10.8 0zM748.42 226.93 a5.4 5.4 0 1 0 10.8 0 a5.4 5.4 0 1 0 -10.8 0zM795.18 523.93 a5.4 5.4 0 1 0 10.8 0 a5.4 5.4 0 1 0 -10.8 0zM841.95 550.93 a5.4 5.4 0 1 0 10.8 0 a5.4 5.4 0 1 0 -10.8 0zM841.95 604.93 a5.4 5.4 0 1 0 10.8 0 a5.4 5.4 0 1 0 -10.8 0zM795.18 631.93 a5.4 5.4 0 1 0 10.8 0 a5.4 5.4 0 1 0 -10.8 0zM748.42 604.93 a5.4 5.4 0 1 0 10.8 0 a5.4 5.4 0 1 0 -10.8 0zM748.42 550.93 a5.4 5.4 0 1 0 10.8 0 a5.4 5.4 0 1 0 -10.8 0zM841.95 118.93 a5.4 5.4 0 1 0 10.8 0 a5.4 5.4 0 1 0 -10.8 0zM888.72 145.93 a5.4 5.4 0 1 0 10.8 0 a5.4 5.4 0 1 0 -10.8 0zM888.72 199.93 a5.4 5.4 0 1 0 10.8 0 a5.4 5.4 0 1 0 -10.8 0zM841.95 226.93 a5.4 5.4 0 1 0 10.8 0 a5.4 5.4 0 1 0 -10.8 0zM935.48 280.93 a5.4 5.4 0 1 0 10.8 0 a5.4 5.4 0 1 0 -10.8 0zM982.25 307.93 a5.4 5.4 0 1 0 10.8 0 a5.4 5.4 0 1 0 -10.8 0zM982.25 361.93 a5.4 5.4 0 1 0 10.8 0 a5.4 5.4 0 1 0 -10.8 0zM935.48 388.93 a5.4 5.4 0 1 0 10.8 0 a5.4 5.4 0 1 0 -10.8 0zM888.72 361.93 a5.4 5.4 0 1 0 10.8 0 a5.4 5.4 0 1 0 -10.8 0zM888.72 307.93 a5.4 5.4 0 1 0 10.8 0 a5.4 5.4 0 1 0 -10.8 0zM982.25 523.93 a5.4 5.4 0 1 0 10.8 0 a5.4 5.4 0 1 0 -10.8 0zM1029.02 550.93 a5.4 5.4 0 1 0 10.8 0 a5.4 5.4 0 1 0 -10.8 0zM1029.02 604.93 a5.4 5.4 0 1 0 10.8 0 a5.4 5.4 0 1 0 -10.8 0zM982.25 631.93 a5.4 5.4 0 1 0 10.8 0 a5.4 5.4 0 1 0 -10.8 0zM935.48 604.93 a5.4 5.4 0 1 0 10.8 0 a5.4 5.4 0 1 0 -10.8 0zM935.48 550.93 a5.4 5.4 0 1 0 10.8 0 a5.4 5.4 0 1 0 -10.8 0zM1075.78 199.93 a5.4 5.4 0 1 0 10.8 0 a5.4 5.4 0 1 0 -10.8 0zM1122.55 226.93 a5.4 5.4 0 1 0 10.8 0 a5.4 5.4 0 1 0 -10.8 0zM1122.55 280.93 a5.4 5.4 0 1 0 10.8 0 a5.4 5.4 0 1 0 -10.8 0zM1075.78 307.93 a5.4 5.4 0 1 0 10.8 0 a5.4 5.4 0 1 0 -10.8 0zM1029.02 280.93 a5.4 5.4 0 1 0 10.8 0 a5.4 5.4 0 1 0 -10.8 0zM1029.02 226.93 a5.4 5.4 0 1 0 10.8 0 a5.4 5.4 0 1 0 -10.8 0zM1075.78 361.93 a5.4 5.4 0 1 0 10.8 0 a5.4 5.4 0 1 0 -10.8 0zM1122.55 388.93 a5.4 5.4 0 1 0 10.8 0 a5.4 5.4 0 1 0 -10.8 0zM1122.55 442.93 a5.4 5.4 0 1 0 10.8 0 a5.4 5.4 0 1 0 -10.8 0zM1075.78 469.93 a5.4 5.4 0 1 0 10.8 0 a5.4 5.4 0 1 0 -10.8 0zM1029.02 442.93 a5.4 5.4 0 1 0 10.8 0 a5.4 5.4 0 1 0 -10.8 0zM1029.02 388.93 a5.4 5.4 0 1 0 10.8 0 a5.4 5.4 0 1 0 -10.8 0zM1122.55 118.93 a5.4 5.4 0 1 0 10.8 0 a5.4 5.4 0 1 0 -10.8 0zM1169.32 145.93 a5.4 5.4 0 1 0 10.8 0 a5.4 5.4 0 1 0 -10.8 0zM1169.32 199.93 a5.4 5.4 0 1 0 10.8 0 a5.4 5.4 0 1 0 -10.8 0zM1075.78 145.93 a5.4 5.4 0 1 0 10.8 0 a5.4 5.4 0 1 0 -10.8 0zM1169.32 307.93 a5.4 5.4 0 1 0 10.8 0 a5.4 5.4 0 1 0 -10.8 0zM1169.32 361.93 a5.4 5.4 0 1 0 10.8 0 a5.4 5.4 0 1 0 -10.8 0zM1169.32 523.93 a5.4 5.4 0 1 0 10.8 0 a5.4 5.4 0 1 0 -10.8 0zM1216.08 550.93 a5.4 5.4 0 1 0 10.8 0 a5.4 5.4 0 1 0 -10.8 0zM1216.08 604.93 a5.4 5.4 0 1 0 10.8 0 a5.4 5.4 0 1 0 -10.8 0zM1169.32 631.93 a5.4 5.4 0 1 0 10.8 0 a5.4 5.4 0 1 0 -10.8 0zM1122.55 604.93 a5.4 5.4 0 1 0 10.8 0 a5.4 5.4 0 1 0 -10.8 0zM1122.55 550.93 a5.4 5.4 0 1 0 10.8 0 a5.4 5.4 0 1 0 -10.8 0zM1356.38 37.93 a5.4 5.4 0 1 0 10.8 0 a5.4 5.4 0 1 0 -10.8 0zM1403.15 64.93 a5.4 5.4 0 1 0 10.8 0 a5.4 5.4 0 1 0 -10.8 0zM1403.15 118.93 a5.4 5.4 0 1 0 10.8 0 a5.4 5.4 0 1 0 -10.8 0zM1356.38 145.93 a5.4 5.4 0 1 0 10.8 0 a5.4 5.4 0 1 0 -10.8 0zM1309.62 118.93 a5.4 5.4 0 1 0 10.8 0 a5.4 5.4 0 1 0 -10.8 0zM1309.62 64.93 a5.4 5.4 0 1 0 10.8 0 a5.4 5.4 0 1 0 -10.8 0zM1309.62 280.93 a5.4 5.4 0 1 0 10.8 0 a5.4 5.4 0 1 0 -10.8 0zM1356.38 307.93 a5.4 5.4 0 1 0 10.8 0 a5.4 5.4 0 1 0 -10.8 0zM1356.38 361.93 a5.4 5.4 0 1 0 10.8 0 a5.4 5.4 0 1 0 -10.8 0zM1309.62 388.93 a5.4 5.4 0 1 0 10.8 0 a5.4 5.4 0 1 0 -10.8 0zM1262.85 361.93 a5.4 5.4 0 1 0 10.8 0 a5.4 5.4 0 1 0 -10.8 0zM1262.85 307.93 a5.4 5.4 0 1 0 10.8 0 a5.4 5.4 0 1 0 -10.8 0zM1403.15 388.93 a5.4 5.4 0 1 0 10.8 0 a5.4 5.4 0 1 0 -10.8 0zM1403.15 442.93 a5.4 5.4 0 1 0 10.8 0 a5.4 5.4 0 1 0 -10.8 0zM1356.38 469.93 a5.4 5.4 0 1 0 10.8 0 a5.4 5.4 0 1 0 -10.8 0zM1309.62 442.93 a5.4 5.4 0 1 0 10.8 0 a5.4 5.4 0 1 0 -10.8 0zM1403.15 -43.07 a5.4 5.4 0 1 0 10.8 0 a5.4 5.4 0 1 0 -10.8 0zM1449.92 -16.07 a5.4 5.4 0 1 0 10.8 0 a5.4 5.4 0 1 0 -10.8 0zM1449.92 37.93 a5.4 5.4 0 1 0 10.8 0 a5.4 5.4 0 1 0 -10.8 0zM1356.38 -16.07 a5.4 5.4 0 1 0 10.8 0 a5.4 5.4 0 1 0 -10.8 0zM1449.92 199.93 a5.4 5.4 0 1 0 10.8 0 a5.4 5.4 0 1 0 -10.8 0zM1496.68 226.93 a5.4 5.4 0 1 0 10.8 0 a5.4 5.4 0 1 0 -10.8 0zM1496.68 280.93 a5.4 5.4 0 1 0 10.8 0 a5.4 5.4 0 1 0 -10.8 0zM1449.92 307.93 a5.4 5.4 0 1 0 10.8 0 a5.4 5.4 0 1 0 -10.8 0zM1403.15 280.93 a5.4 5.4 0 1 0 10.8 0 a5.4 5.4 0 1 0 -10.8 0zM1403.15 226.93 a5.4 5.4 0 1 0 10.8 0 a5.4 5.4 0 1 0 -10.8 0z" fill="rgba(207, 220, 232, 1)"></path>
        <path d="M155.26 365.87L228.88 408.37L228.88 493.37L155.26 535.87L81.65 493.37L81.65 408.37zM81.65 493.37L155.26 535.87L155.26 620.87L81.65 663.37L8.04 620.87L8.04 535.87zM523.34 238.37L596.95 280.87L596.95 365.87L523.34 408.37L449.72 365.87L449.72 280.87zM670.56 493.37L744.18 535.87L744.18 620.87L670.56 663.37L596.95 620.87L596.95 535.87zM817.79 238.37L891.41 280.87L891.41 365.87L817.79 408.37L744.18 365.87L744.18 280.87zM1038.64 110.87L1112.25 153.37L1112.25 238.37L1038.64 280.87L965.02 238.37L965.02 153.37zM1480.32 110.87L1553.94 153.37L1553.94 238.37L1480.32 280.87L1406.71 238.37L1406.71 153.37z" stroke="rgba(227, 232, 238, 0.93)" stroke-width="2"></path>
    </g>
    <defs>
        <mask id="SvgjsMask1219">
            <rect width="1440" height="560" fill="#ffffff"></rect>
        </mask>
    </defs>
</svg>